<!DOCTYPE svg PUBLIC "-//W3C//DTD SVG 1.1//EN" "http://www.w3.org/Graphics/SVG/1.1/DTD/svg11.dtd">
<!-- Uploaded to: SVG Repo, www.svgrepo.com, Transformed by: SVG Repo Mixer Tools -->
<svg fill="#191919" width="120px" height="120px" viewBox="-2.4 -2.4 28.80 28.80" xmlns="http://www.w3.org/2000/svg" stroke="#191919" stroke-width="0.00024000000000000003">
<g id="SVGRepo_bgCarrier" stroke-width="0">
<path transform="translate(-2.4, -2.4), scale(0.8999999999999999)" d="M16,27.13135264485198C17.413670530361685,26.55659907970995,18.73510629088072,25.887631696691333,20.165511232251433,25.355891409747784C21.687079529674733,24.790261957782413,23.41524910884747,24.802375949157277,24.750065048365627,23.878593957417586C26.177568571573836,22.8906659526316,27.817232587273157,21.632574044927303,28.034281998024483,19.910175251179247C28.261779026705778,18.104869231570337,26.28909572660077,16.733761563484514,25.873666789452802,14.962235802826457C25.51848030912679,13.447603711824877,26.018087414061956,11.88594771858751,25.791636403925416,10.346796086386725C25.497218902819924,8.345686985121242,25.595563922510113,6.107974513355285,24.337899130202373,4.523866382477131C23.08619734795838,2.947269038880502,20.993861416592257,1.4387405056555378,19.015728532496688,1.812112744002846C16.740998659468023,2.241467612503766,16.201110300115467,5.839834005199191,13.976376914412409,6.479601901308913C11.979096168491903,7.0539611072117845,10.048288042734521,4.6632464491661665,7.994571768110154,4.981473315997299C5.886232320130727,5.308164137430111,3.2839065557036067,6.235933121652771,2.5711658107509354,8.246858965934193C1.8022736705997453,10.416210286234472,4.659516656909686,12.495922606639802,4.517000641187877,14.79308813383579C4.383009460296873,16.952844847017573,0.9163606648013705,18.639085940666682,1.8039984050614315,20.61256052594929C2.7500664141670814,22.71594244318493,6.649713125038819,21.315755068837596,8.213347697429512,23.01113322477555C9.748883505094067,24.676045162604304,7.991202687256981,28.43236539881077,9.993125752780172,29.491660455473912C11.915656771305912,30.508946104097795,13.98507994856324,27.950555180497357,16,27.13135264485198" fill="#B3A081" strokewidth="0"/>
</g>
<g id="SVGRepo_tracerCarrier" stroke-linecap="round" stroke-linejoin="round"/>
<g id="SVGRepo_iconCarrier">
<path d="M5,23H19a1,1,0,0,0,1-1V12a1,1,0,0,0-.684-.949C17.359,10.4,16.28,7.185,16,5.891V2a1,1,0,0,0-2,0V5H10V2A1,1,0,0,0,8,2V5.9c0,.013-.008.023-.009.036-.3,1.327-1.377,4.469-3.307,5.112A1,1,0,0,0,4,12V22A1,1,0,0,0,5,23ZM6,12.655C8.267,11.449,9.366,8.451,9.779,7h4.442c.413,1.451,1.512,4.449,3.779,5.655V21H6ZM16,16a1,1,0,0,1-1,1H9a1,1,0,0,1,0-2h6A1,1,0,0,1,16,16Z"/>
</g>
</svg>